<svg xmlns="http://www.w3.org/2000/svg" width="38.46" height="50" viewBox="0 0 38.46 50" fill="#ffd2de">
  <path id="bell" d="M32.166,47.444a8.337,8.337,0,0,1-15.718,0H12.022A6.944,6.944,0,0,1,5.676,37.68L7.64,33.261V25.222A16.674,16.674,0,0,1,18.751,9.5V8.556a5.556,5.556,0,1,1,11.111,0V9.5A16.674,16.674,0,0,1,40.973,25.222v8.039l1.964,4.419a6.945,6.945,0,0,1-6.346,9.765Zm-3.045,0H19.493a5.56,5.56,0,0,0,9.627,0ZM27.084,8.786v-.23a2.778,2.778,0,1,0-5.556,0v.23a16.857,16.857,0,0,1,5.556,0Zm-2.778,2.547A13.889,13.889,0,0,0,10.418,25.222v8.333l-.12.564L8.214,38.808a4.167,4.167,0,0,0,3.808,5.859H36.591A4.167,4.167,0,0,0,40.4,38.808L38.315,34.12l-.12-.564V25.222A13.889,13.889,0,0,0,24.307,11.333Z" transform="translate(-5.078 -3)"/>
</svg>
