<svg xmlns="http://www.w3.org/2000/svg" width="50" height="50" viewBox="0 0 50 50" fill="#ffd2de">
  <path id="bill" d="M28,14.111h1.389a4.167,4.167,0,0,1,4.167,4.167,1.389,1.389,0,1,1-2.778,0,1.389,1.389,0,0,0-1.389-1.389H18.278a1.389,1.389,0,0,0-1.389,1.389v2.778a1.389,1.389,0,0,0,1.389,1.389H29.389a4.167,4.167,0,0,1,4.167,4.167v2.778a4.167,4.167,0,0,1-4.167,4.167H28v1.389a1.389,1.389,0,0,1-2.778,0V33.556H22.444v1.389a1.389,1.389,0,1,1-2.778,0V33.556H18.278a4.167,4.167,0,0,1-4.167-4.167,1.389,1.389,0,0,1,2.778,0,1.389,1.389,0,0,0,1.389,1.389H29.389a1.389,1.389,0,0,0,1.389-1.389V26.611a1.389,1.389,0,0,0-1.389-1.389H18.278a4.167,4.167,0,0,1-4.167-4.167V18.278a4.167,4.167,0,0,1,4.167-4.167h1.389V12.722a1.389,1.389,0,1,1,2.778,0v1.389h2.778V12.722a1.389,1.389,0,0,1,2.778,0ZM41.889,41.889V9.944a4.167,4.167,0,0,0-4.167-4.167H9.944A4.167,4.167,0,0,0,5.778,9.944v37.5a2.778,2.778,0,1,0,5.556,0V43.278a1.389,1.389,0,0,1,1.389-1.389Zm2.778,0h6.944A1.389,1.389,0,0,1,53,43.278v2.778A6.944,6.944,0,0,1,46.056,53H8.556A5.555,5.555,0,0,1,3,47.444V9.944A6.944,6.944,0,0,1,9.944,3H37.722a6.944,6.944,0,0,1,6.944,6.944Zm1.389,8.333a4.167,4.167,0,0,0,4.167-4.167V44.667H14.111v2.778a5.53,5.53,0,0,1-.743,2.778Z" transform="translate(-3 -3)"/>
</svg>
