<svg xmlns="http://www.w3.org/2000/svg" width="40" height="50" viewBox="0 0 40 50" fill="#ffd2de">
  <path id="book" d="M14,4.5v35H41.5V5.75A1.25,1.25,0,0,0,40.25,4.5Zm-2.5,0H10.25A3.75,3.75,0,0,0,6.5,8.25v32.5a6.223,6.223,0,0,1,3.75-1.25H11.5ZM4.378,47.9A1.247,1.247,0,0,1,4,47V8.25A6.25,6.25,0,0,1,10.25,2h30A3.75,3.75,0,0,1,44,5.75v42.5A3.75,3.75,0,0,1,40.25,52h-30a6.253,6.253,0,0,1-5.872-4.1ZM41.5,42H10.25a3.75,3.75,0,0,0,0,7.5h30a1.25,1.25,0,0,0,1.25-1.25ZM20.25,22a1.25,1.25,0,1,1,0-2.5h15a1.25,1.25,0,0,1,0,2.5Zm0-5a1.25,1.25,0,1,1,0-2.5h10a1.25,1.25,0,0,1,0,2.5Z" transform="translate(-4 -2)"/>
</svg>
