<svg xmlns="http://www.w3.org/2000/svg" width="50" height="50" viewBox="0 0 50 50" fill="#ffd2de">
  <path id="compass" d="M31.921,31.188a1.25,1.25,0,0,1-.732.732L18.714,36.91a1.25,1.25,0,0,1-1.625-1.625l4.99-12.474a1.25,1.25,0,0,1,.732-.732l12.474-4.99a1.25,1.25,0,0,1,1.625,1.625l-4.99,12.474Zm-6.446-7.482,4.819,4.819,3.213-8.032-8.032,3.213Zm3.051,6.587-4.819-4.819-3.213,8.032,8.032-3.213ZM27,52A25,25,0,1,1,52,27,25,25,0,0,1,27,52Zm0-2.5A22.5,22.5,0,1,0,4.5,27,22.5,22.5,0,0,0,27,49.5Z" transform="translate(-2 -2)"/>
</svg>
