<svg xmlns="http://www.w3.org/2000/svg" width="30.003" height="30" viewBox="0 0 30.003 30">
  <defs>
    <style>
      .cls-1 {
        fill: #ffd2de;
      }
    </style>
  </defs>
  <path id="deploy" class="cls-1" d="M12.865,26.527a3.908,3.908,0,0,1-3.833,3.149H5.907a.781.781,0,0,1-.781-.781V25.77a3.908,3.908,0,0,1,3.149-3.833l.018-.536a19.43,19.43,0,0,1,.276-2.663H2.782a.781.781,0,0,1-.725-1.071L5.181,9.853a.781.781,0,0,1,.725-.491h7.032a.787.787,0,0,1,.117.009,19.263,19.263,0,0,1,18-6.246.781.781,0,0,1,.626.626,19.252,19.252,0,0,1-6.246,18,.782.782,0,0,1,.008.114v7.032a.781.781,0,0,1-.491.725l-7.813,3.125a.781.781,0,0,1-1.072-.725V26.23a19.274,19.274,0,0,1-2.663.278Zm-1.509-.453L8.728,23.445a2.344,2.344,0,0,0-2.04,2.324v2.344H9.032A2.344,2.344,0,0,0,11.357,26.074Zm6.27-.184v4.976l6.251-2.5V22.977A19.147,19.147,0,0,1,17.627,25.89ZM8.908,17.175a19.157,19.157,0,0,1,2.919-6.251H6.436l-2.5,6.251Zm3.561,7.8.877-.03A17.7,17.7,0,0,0,30.232,4.57,17.7,17.7,0,0,0,9.855,21.454l-.03.877Zm8.282-6.239A4.688,4.688,0,1,1,25.44,14.05,4.688,4.688,0,0,1,20.752,18.738Zm0-1.563a3.125,3.125,0,1,0-3.125-3.125A3.125,3.125,0,0,0,20.752,17.175Z" transform="translate(-2 -2.802)"/>
</svg>
