<svg xmlns="http://www.w3.org/2000/svg" width="33.346" height="30" viewBox="0 0 33.346 30">
  <defs>
    <style>
      .cls-1 {
        fill: #ffd2de;
      }
    </style>
  </defs>
  <path id="diamond" class="cls-1" d="M27.159,13l1.159-6.953L32.954,13Zm-.423,1.667h5.954l-11.314,13.1Zm-16.126,0,5.36,13.1L4.654,14.671ZM10.186,13H4.39L9.027,6.051Zm1.486-1.225L10.486,4.667h6.519ZM20.34,4.667h6.519l-1.185,7.111ZM12.837,13l5.835-7.781L24.508,13Zm12.1,1.667L18.672,29.976,12.412,14.671Zm10.272-1.3-6.669-10s-.007-.005-.008-.008a.805.805,0,0,0-.272-.247c-.032-.018-.067-.023-.1-.038a.852.852,0,0,0-.178-.067c-.027-.005-.053.005-.082,0S27.862,3,27.842,3H9.5c-.02,0-.037.013-.057.013s-.052-.007-.08,0a.8.8,0,0,0-.177.067.861.861,0,0,0-.1.038.79.79,0,0,0-.272.247l-.01.008-6.669,10A.835.835,0,0,0,2.2,14.382l15.839,18.34a.763.763,0,0,0,.125.093.753.753,0,0,0,.11.082.813.813,0,0,0,.79,0,.753.753,0,0,0,.11-.082.855.855,0,0,0,.127-.093l15.839-18.34a.832.832,0,0,0,.062-1.007Z" transform="translate(-2 -3)"/>
</svg>
