<svg xmlns="http://www.w3.org/2000/svg" width="37.502" height="30" viewBox="0 0 37.502 30">
  <defs>
    <style>
      .cls-1 {
        fill: #ffd2de;
      }
    </style>
  </defs>
  <path id="package" class="cls-1" d="M35.751,14.493V33.063a.938.938,0,0,1-.938.937H6.688a.938.938,0,0,1-.938-.937V14.493L2.067,5.286A.938.938,0,0,1,2.938,4h18.75a.937.937,0,0,1,.87.589l2.88,7.2,2.88-7.2A.937.937,0,0,1,29.188,4h9.375a.937.937,0,0,1,.87,1.286l-3.683,9.207Zm-9.375.757V32.125h7.5V15.25Zm-1.875,0H7.625V32.125H24.5ZM7.323,13.375H24.053l-3-7.5H4.323Zm26.856,0,3-7.5H29.823l-3,7.5ZM22.626,25.563v3.75a.938.938,0,0,1-.938.938H16.063a.938.938,0,0,1-.938-.937v-3.75a.938.938,0,0,1,.938-.937h5.625A.938.938,0,0,1,22.626,25.563Zm-1.875.938H17v1.875h3.75Z" transform="translate(-2 -4)"/>
</svg>
