<svg xmlns="http://www.w3.org/2000/svg" width="50.022" height="50" viewBox="0 0 50.022 50" fill="#ffd2de">
  <path id="shopping-bag-alt" d="M46.078,50.222a4.168,4.168,0,0,0,4.167-4.167V13.331a5.52,5.52,0,0,1-2.8.781H8.555a5.492,5.492,0,0,1-2.778-.769V46.056a4.168,4.168,0,0,0,4.167,4.167ZM8.555,5.778a2.778,2.778,0,0,0,0,5.556H47.444a2.778,2.778,0,0,0,0-5.556ZM52.975,8.311a1.216,1.216,0,0,1,.047.222V46.056A6.945,6.945,0,0,1,46.078,53H9.944A6.943,6.943,0,0,1,3,46.056V8.556A5.558,5.558,0,0,1,8.555,3H47.444A5.541,5.541,0,0,1,52.975,8.311ZM40.5,16.889a1.389,1.389,0,0,1,0,2.778H39.111a11.111,11.111,0,0,1-22.222,0H15.5a1.389,1.389,0,1,1,0-2.778h5.556a1.389,1.389,0,1,1,0,2.778H19.667a8.333,8.333,0,0,0,16.667,0H34.945a1.389,1.389,0,1,1,0-2.778Z" transform="translate(-3 -3)"/>
</svg>
